<svg width="44" height="41" viewBox="0 0 44 41" fill="none" xmlns="http://www.w3.org/2000/svg">
<path d="M43.1378 0.552079C42.3878 -0.0839213 41.2098 -0.174921 39.9918 0.314079H39.9898C38.7088 0.828079 3.72881 15.8321 2.30481 16.4451C2.04581 16.5351 -0.216191 17.3791 0.0168089 19.2591C0.224809 20.9541 2.04281 21.6561 2.26481 21.7371L11.1578 24.7821C11.7478 26.7461 13.9228 33.9921 14.4038 35.5401C14.7038 36.5051 15.1928 37.7731 16.0498 38.0341C16.8018 38.3241 17.5498 38.0591 18.0338 37.6791L23.4708 32.6361L32.2478 39.4811L32.4568 39.6061C33.0528 39.8701 33.6238 40.0021 34.1688 40.0021C34.5898 40.0021 34.9938 39.9231 35.3798 39.7651C36.6948 39.2251 37.2208 37.9721 37.2758 37.8301L43.8318 3.75308C44.2318 1.93308 43.6758 1.00708 43.1378 0.552079ZM19.0008 26.0001L16.0008 34.0001L13.0008 24.0001L36.0008 7.00008L19.0008 26.0001Z" fill="url(#paint0_linear_426_5638)"/>
<defs>
<linearGradient id="paint0_linear_426_5638" x1="21.984" y1="0.00219727" x2="21.984" y2="40.0021" gradientUnits="userSpaceOnUse">
<stop offset="0.109375" stop-color="#52CEEA"/>
<stop offset="1" stop-color="#41B3E6"/>
</linearGradient>
</defs>
</svg>
